# xmcd
#
# Track frame offsets:
#	150
#	15770
#	33285
#	49788
#	61687
#	76792
#	96509
#	114061
#	131499
#	150894
#	169477
#	191081
#	208323
#	232981
#
# Disc length: 3338 seconds
#
# Revision: 0
# Processed by: cddbd v1.5.2PL0 Copyright (c) Steve Scherf et al.
# Submitted via: audiograbber 1.83.01
#
DISCID=a30d080e
DTITLE=JonesTM - HC200828
DYEAR=2008
DGENRE=Country
TTITLE0=Katie Armiger - Unseen
TTITLE1=Little Big Town - Fine Line [Edit]
TTITLE2=Bailey Grey - Beach Weekend
TTITLE3=Justin Moore - Back That Thing Up
TTITLE4=Ronnie McDowell - Hey, Mr. Oil Man
TTITLE5=Carrie Underwood - Just A Dream [Single Edit]
TTITLE6=John Legend Feat. Andre 3000 - Green Light
TTITLE7=Michelle Williams - We Break The Dawn [Album Version]
TTITLE8=Larry Carlton - All In Good Time [Radio Edit with Sax Solo]
TTITLE9=Larry Carlton - All In Good Time [Radio Edit]
TTITLE10=Harold Rayford - You Are Good [Album Version]
TTITLE11=Dave Koz - Life In The Fast Lane [Radio Edit]
TTITLE12=Kenny G - Tango [Album Version]
TTITLE13=Paul Hardcastle - Marimba
EXTD=
EXTT0=
EXTT1=
EXTT2=
EXTT3=
EXTT4=
EXTT5=
EXTT6=
EXTT7=
EXTT8=
EXTT9=
EXTT10=
EXTT11=
EXTT12=
EXTT13=
PLAYORDER=
